<?xml version="1.0" encoding="UTF-8" standalone="no"?>
<!-- Generator: Adobe Illustrator 17.0.1, SVG Export Plug-In . SVG Version: 6.00 Build 0)  -->

<svg
   xmlns:dc="http://purl.org/dc/elements/1.1/"
   xmlns:cc="http://creativecommons.org/ns#"
   xmlns:rdf="http://www.w3.org/1999/02/22-rdf-syntax-ns#"
   xmlns:svg="http://www.w3.org/2000/svg"
   xmlns="http://www.w3.org/2000/svg"
   xmlns:xlink="http://www.w3.org/1999/xlink"
   xmlns:sodipodi="http://sodipodi.sourceforge.net/DTD/sodipodi-0.dtd"
   xmlns:inkscape="http://www.inkscape.org/namespaces/inkscape"
   version="1.1"
   x="0px"
   y="0px"
   width="86px"
   height="86px"
   viewBox="0 0 86 86"
   enable-background="new 0 0 86 86"
   xml:space="preserve"
   id="svg2"
   inkscape:version="0.91 r13725"
   inkscape:export-xdpi="90"
   inkscape:export-ydpi="90"
   sodipodi:docname="helsinki-city-bikes.svg"><metadata
     id="metadata29"><rdf:RDF><cc:Work
         rdf:about=""><dc:format>image/svg+xml</dc:format><dc:type
           rdf:resource="http://purl.org/dc/dcmitype/StillImage" /><dc:title /></cc:Work></rdf:RDF></metadata><defs
     id="defs27"><linearGradient
       y2="85.2833"
       x2="85.2829"
       y1="12.8066"
       x1="12.8062"
       gradientUnits="userSpaceOnUse"
       id="SVGID_1_"><stop
         id="stop7"
         style="stop-color:#e18c2e;stop-opacity:1;"
         offset="0.0049" /><stop
         id="stop9"
         style="stop-color:#fcbc19;stop-opacity:1;"
         offset="1" /></linearGradient><linearGradient
       inkscape:collect="always"
       xlink:href="#SVGID_1_"
       id="linearGradient10171"
       gradientUnits="userSpaceOnUse"
       x1="12.8062"
       y1="12.8066"
       x2="85.282898"
       y2="85.283302"
       gradientTransform="matrix(0,-1,1,0,0,86)" /><linearGradient
       spreadMethod="pad"
       gradientUnits="userSpaceOnUse"
       y2="29.143038"
       x2="25.399216"
       y1="29.143038"
       x1="-29.593582"
       id="linearGradient10935"
       xlink:href="#linearGradient10925"
       inkscape:collect="always" /><linearGradient
       id="linearGradient10925"><stop
         id="stop10927"
         offset="0"
         style="stop-color:#ffffff;stop-opacity:0.39215687;" /><stop
         id="stop10929"
         offset="1"
         style="stop-color:#ffffff;stop-opacity:0;" /></linearGradient><clipPath
       id="clipPath16"
       clipPathUnits="userSpaceOnUse"><path
         inkscape:connector-curvature="0"
         id="path18"
         d="m 0,283.46 283.46,0 L 283.46,0 0,0 0,283.46 Z" /></clipPath><clipPath
       id="clipPath28"
       clipPathUnits="userSpaceOnUse"><path
         inkscape:connector-curvature="0"
         id="path30"
         d="m 0,283.46 283.46,0 L 283.46,0 0,0 0,283.46 Z" /></clipPath></defs><sodipodi:namedview
     pagecolor="#ffffff"
     bordercolor="#666666"
     borderopacity="1"
     objecttolerance="10"
     gridtolerance="10"
     guidetolerance="10"
     inkscape:pageopacity="0"
     inkscape:pageshadow="2"
     inkscape:window-width="1920"
     inkscape:window-height="1136"
     id="namedview25"
     showgrid="true"
     inkscape:zoom="10.895349"
     inkscape:cx="43"
     inkscape:cy="43"
     inkscape:window-x="0"
     inkscape:window-y="27"
     inkscape:window-maximized="1"
     inkscape:current-layer="svg2"
     showguides="true"
     inkscape:snap-global="false"
     inkscape:showpageshadow="false"><inkscape:grid
       type="xygrid"
       id="grid10926"
       empspacing="10"
       visible="true"
       enabled="true"
       snapvisiblegridlinesonly="true" /></sodipodi:namedview><g
     id="Layer_2"
     display="none" /><path
     inkscape:connector-curvature="0"
     style="fill:url(#linearGradient10171);fill-opacity:1.0"
     id="path11"
     d="M 43,0.301 C 19.418,0.301 0.3,19.418 0.3,43.001 0.3,66.583 19.418,85.7 43,85.7 66.583,85.7 85.7,66.583 85.7,43 c 0,-0.636 0,-41.277 0,-41.277 C 85.7,0.937 85.063,0.3 84.277,0.3 84.277,0.3 43.636,0.301 43,0.301 z" /><g
     id="Page-1"
     style="fill:none;fill-rule:evenodd;stroke:none;stroke-width:1"
     transform="matrix(0.38175491,0,0,0.38175491,13.999969,19.943484)"><g
       transform="translate(-1220,-202)"
       id="Artboard-13"
       style="fill:#ffffff"><g
         transform="translate(1220,202)"
         id="g10417"><path
           id="Fill-1"
           d="m 105.97682,63.226154 c -2.73012,3.638287 -4.39845,8.19 -4.39845,13.193287 0,12.128601 9.70597,21.836328 21.84027,21.836328 11.98083,0 21.83733,-9.707727 21.83733,-21.836328 0,-11.983217 -9.8565,-21.838532 -21.83733,-21.838532 -0.91127,0 -1.82473,0 -2.58033,0.151259 l -2.42539,-6.37049 c 1.51486,-0.302517 3.18099,-0.453042 5.00572,-0.453042 15.76982,0 28.51138,12.738777 28.51138,28.510805 0,15.769825 -12.74156,28.507869 -28.51138,28.507869 -15.77496,0 -28.664851,-12.738044 -28.664851,-28.507869 0,-7.888217 3.337392,-15.164791 8.492911,-20.321539 l 2.73012,7.128252 z"
           inkscape:connector-curvature="0" /><path
           id="Fill-3"
           d="m 13.464043,65.196629 c -2.276329,3.637553 -3.33372,7.431504 -3.33372,11.222518 0,12.129336 9.855768,21.836329 21.990067,21.836329 6.671846,0 12.587363,-2.880525 16.225817,-7.73549 l 8.039111,0.911958 c -5.00572,8.189266 -14.103691,13.495066 -24.264928,13.495066 -15.773488,0 -28.6633813,-12.737304 -28.6633813,-28.507863 0,-4.852028 1.3643285,-10.010979 3.9417198,-14.256504 1.9693913,0.757763 4.2457195,1.822448 6.0653145,3.033986"
           inkscape:connector-curvature="0" /><path
           id="Fill-5"
           d="m 1.0225121,49.865234 c 0.1843092,-0.179895 1.4546473,-1.381888 1.6507053,-1.547832 6.0308019,-5.026783 14.4223766,-8.295 23.3786276,-8.295 7.734377,0 15.317488,2.578007 21.688271,7.278042 L 54.070512,37.87908 47.801063,21.563696 c -0.762203,0.160804 -1.531015,0.260664 -2.336541,0.260664 -4.700986,0 -9.704503,-3.487762 -9.704503,-7.280245 0,-1.821713 1.515594,-2.688147 3.94172,-2.688147 4.094454,0 5.30972,0.11014 12.43316,0.11014 l 9.709642,0 c 2.424657,0 3.792657,1.516993 3.792657,3.338707 0,1.818776 -1.52,3.031783 -3.487923,3.183776 l -1.973062,0.151993 c -2.364445,0.148322 -4.290513,0.534545 -5.969121,0.991259 l 17.823652,46.480489 1.640425,-0.158601 c 2.694879,-0.287832 4.958725,0.03671 6.994203,1.123426 C 83.545295,54.200339 91.154106,44.22901 101.39171,37.36436 L 95.944676,23.146773 c -0.757797,-2.121294 0.118957,-4.096469 1.889353,-6.222902 l 0.0081,0.0066 c 2.177191,-3.484091 2.488541,-4.477552 2.758021,-5.524615 0.3767,-1.4347556 -0.11454,-2.9554199 -0.879683,-3.7572381 -0.511806,-0.5294056 -1.401043,-1.2445805 -3.036328,-1.1961189 -1.925333,0.027168 -3.916019,1.89 -4.673082,2.6205944 -1.326879,1.2673426 -3.304348,1.4024476 -4.64371,0.174021 -1.330551,-1.2357692 -1.408387,-3.313007 -0.175498,-4.6390909 0.428097,-0.4662588 4.330899,-4.52160842 9.390957,-4.60531472 3.643594,-0.07416084 6.622644,1.45531472 8.636094,3.88573432 1.86071,2.2534615 2.51718,5.2426573 1.85778,8.4528669 -0.67409,3.281434 -1.4686,4.755105 -4.30153,9.071853 -0.0345,0.05067 -0.0683,0.104266 -0.0991,0.151993 l 0.0419,0.105 13.55149,0 c 1.97453,0 3.03339,0.911958 4.55413,2.731469 3.78825,4.39972 14.09855,5.91451 19.10427,-5.156748 1.66686,-3.639021 6.82531,-1.817308 5.30972,2.425279 l -6.36858,18.504965 c -0.45673,1.514791 -1.6676,2.42528 -3.49013,2.42528 l -12.58589,0 c -1.67127,0 -2.73453,-0.758496 -3.49013,-2.578007 l -5.15625,-13.043496 -9.42033,0 11.71722,30.938286 c 2.42613,6.218497 5.91111,12.128602 9.09797,16.073077 2.87772,3.64049 -1.81959,7.738427 -5.16139,3.793951 -3.18172,-3.640489 -7.42744,-10.161503 -10.00777,-16.986503 L 103.91403,43.93971 C 93.720483,51.409395 87.589082,62.712682 86.868,74.447717 l -0.151266,2.122028 C 86.109469,85.668031 80.041952,88.85401 72.611575,88.096248 L 33.029894,83.845584 c -4.398454,-0.450839 -6.978049,-3.180839 -6.978049,-7.125315 0,-2.19472 1.1903,-4.250664 3.120773,-5.537832 C 22.132155,63.607752 13.298531,57.891493 3.9861449,55.64978 3.7577778,55.593975 2.5116715,55.244465 2.2811015,55.205549 -0.16925604,54.767192 -0.73540097,51.623801 1.0225121,49.865234 l 0,0 z M 56.946029,45.364185 40.987498,69.101528 65.168715,66.770968 56.946029,45.364185 Z m 18.394937,37.423322 c 3.183923,0 5.759846,-2.579475 5.759846,-5.763986 0,-3.183776 -2.575923,-5.760315 -5.759846,-5.760315 -3.031188,0 -5.762048,2.576539 -5.762048,5.760315 0,3.184511 2.73086,5.763986 5.762048,5.763986 l 0,0 z"
           inkscape:connector-curvature="0" /></g></g></g></svg>
